<svg xmlns="http://www.w3.org/2000/svg" viewBox="66 138 413.69000244140625 273"> <svg xmlns="http://www.w3.org/2000/svg"
    xmlns:xlink="http://www.w3.org/1999/xlink" version="1.1" id="Layer_1" x="136" y="208"
    viewBox="74.47437286376953 74.48906707763672 138.999267578125 139.21575927734375" xml:space="preserve" height="133"
    width="132.79317634867675" preserveAspectRatio="xMinYMin" enable-background="new 0 0 288 288"
    style="overflow: visible;">
    <polygon class="st0" points="173.2,117.4 173.2,139 145.4,110.3 145.4,85.9  "
      style="fill: #11b6c9; fill-opacity: 1;"></polygon>
    <polygon class="st0" points="173.2,147.4 173.2,173.2 145.4,145.3 145.4,118.7  "
      style="fill: #11b6c9; fill-opacity: 1;"></polygon>
    <path class="st1"
      d="M213.2,138.6c-0.2,1.8-0.1,3.6-0.2,5.5c-0.4,7.1-2.1,14.1-4.7,20.7c-3.9,9.8-10.3,18.6-18.4,25.3   c-5,4.2-10.7,7.7-16.7,10.2v-18.9l-27.8-27.8v51.8c-1.9-0.1-3.8-0.2-5.7-0.5V85.9l-6.5,15.3v102.7c-1.2-0.3-2.5-0.6-3.7-1v-84.3   l-6.5,11.2v70.9c-1-0.4-2-0.8-2.9-1.3v-46.1l-6.5,6.6V196c-2.2-1.4-4.4-2.9-6.5-4.5c-9.8-7.7-17.3-18.4-21.4-30.2   c-3.6-10.5-4.5-22-2.5-33c1.4-7.8,4.3-15.3,8.4-22.1c7.3-12.1,18.6-21.7,31.7-26.9c7.8-3.1,16.1-4.7,24.5-4.7   c-8.7-0.5-17.4,0.7-25.6,3.4c-12.8,4.2-24.4,12.3-32.8,22.9c-12,15.1-17.2,35.3-14,54.4c1.5,9.3,5,18.2,10,26.2   c7.2,11.3,17.8,20.5,30,26c7.9,3.5,16.4,5.6,25,6.1c14.2,0.8,28.6-3,40.7-10.7c8.1-5.1,15.2-11.9,20.5-19.9   c6.6-9.7,10.6-21.1,11.6-32.8C213.7,146.3,213.4,142.4,213.2,138.6z"
      style="fill: #234575;"></path>
  </svg> <svg x="276" y="310.13999938964844"
    viewBox="0.2199999988079071 1.8600000143051147 133.69000244140625 6.5799994468688965" height="6.5799994468688965"
    width="133.69000244140625" style="overflow: visible;">
    <g fill="#000" style="">
      <path
        d="M5.16 1.95L5.16 2.65L3.11 2.65L3.11 8.35L2.27 8.35L2.27 2.65L0.22 2.65L0.22 1.95L5.16 1.95ZM15.03 1.95L15.03 8.35L14.18 8.35L14.18 5.39L10.96 5.39L10.96 8.35L10.11 8.35L10.11 1.95L10.96 1.95L10.96 4.70L14.18 4.70L14.18 1.95L15.03 1.95ZM24.15 4.70L24.15 5.39L21.37 5.39L21.37 7.66L24.59 7.66L24.59 8.35L20.53 8.35L20.53 1.95L24.55 1.95L24.55 2.65L21.37 2.65L21.37 4.70L24.15 4.70ZM36.72 1.95L36.72 7.66L39.75 7.66L39.75 8.35L35.87 8.35L35.87 1.95L36.72 1.95ZM49.35 4.95L49.35 5.36Q49.35 6.30 49.03 7.00Q48.72 7.70 48.14 8.07Q47.56 8.44 46.78 8.44L46.78 8.44Q46.03 8.44 45.44 8.07Q44.86 7.69 44.54 7.01Q44.21 6.32 44.21 5.41L44.21 5.41L44.21 4.95Q44.21 4.03 44.53 3.32Q44.85 2.61 45.43 2.24Q46.02 1.86 46.78 1.86L46.78 1.86Q47.54 1.86 48.13 2.23Q48.72 2.61 49.03 3.31Q49.35 4.02 49.35 4.95L49.35 4.95ZM48.51 5.42L48.51 4.94Q48.51 3.81 48.05 3.20Q47.60 2.59 46.78 2.59L46.78 2.59Q45.98 2.59 45.52 3.20Q45.06 3.81 45.04 4.89L45.04 4.89L45.04 5.36Q45.04 6.46 45.51 7.09Q45.97 7.72 46.78 7.72L46.78 7.72Q47.60 7.72 48.05 7.13Q48.50 6.53 48.51 5.42L48.51 5.42ZM58.67 8.35L58.06 6.68L55.38 6.68L54.77 8.35L53.90 8.35L56.35 1.95L57.09 1.95L59.53 8.35L58.67 8.35ZM56.72 2.99L55.63 5.99L57.81 5.99L56.72 2.99ZM69.31 1.95L69.31 8.35L68.46 8.35L65.24 3.42L65.24 8.35L64.40 8.35L64.40 1.95L65.24 1.95L68.47 6.90L68.47 1.95L69.31 1.95ZM82.92 5.50L82.92 5.50Q81.84 5.19 81.34 4.73Q80.85 4.28 80.85 3.61L80.85 3.61Q80.85 2.85 81.45 2.36Q82.06 1.86 83.03 1.86L83.03 1.86Q83.69 1.86 84.20 2.12Q84.72 2.37 85.00 2.82Q85.28 3.27 85.28 3.80L85.28 3.80L84.44 3.80Q84.44 3.22 84.07 2.89Q83.70 2.56 83.03 2.56L83.03 2.56Q82.40 2.56 82.05 2.83Q81.70 3.11 81.70 3.59L81.70 3.59Q81.70 3.99 82.03 4.26Q82.37 4.53 83.16 4.75Q83.96 4.97 84.41 5.24Q84.86 5.52 85.08 5.88Q85.30 6.24 85.30 6.72L85.30 6.72Q85.30 7.50 84.69 7.97Q84.08 8.44 83.07 8.44L83.07 8.44Q82.41 8.44 81.84 8.18Q81.27 7.93 80.96 7.49Q80.65 7.05 80.65 6.50L80.65 6.50L81.50 6.50Q81.50 7.08 81.93 7.41Q82.35 7.75 83.07 7.75L83.07 7.75Q83.74 7.75 84.09 7.48Q84.45 7.20 84.45 6.73Q84.45 6.26 84.12 6.01Q83.79 5.75 82.92 5.50ZM90.67 1.95L92.33 5.16L94 1.95L94.96 1.95L92.75 5.96L92.75 8.35L91.91 8.35L91.91 5.96L89.70 1.95L90.67 1.95ZM101.60 5.50L101.60 5.50Q100.51 5.19 100.02 4.73Q99.52 4.28 99.52 3.61L99.52 3.61Q99.52 2.85 100.13 2.36Q100.73 1.86 101.70 1.86L101.70 1.86Q102.36 1.86 102.88 2.12Q103.39 2.37 103.68 2.82Q103.96 3.27 103.96 3.80L103.96 3.80L103.11 3.80Q103.11 3.22 102.74 2.89Q102.37 2.56 101.70 2.56L101.70 2.56Q101.08 2.56 100.73 2.83Q100.38 3.11 100.38 3.59L100.38 3.59Q100.38 3.99 100.71 4.26Q101.04 4.53 101.84 4.75Q102.64 4.97 103.09 5.24Q103.54 5.52 103.75 5.88Q103.97 6.24 103.97 6.72L103.97 6.72Q103.97 7.50 103.37 7.97Q102.76 8.44 101.74 8.44L101.74 8.44Q101.08 8.44 100.51 8.18Q99.94 7.93 99.63 7.49Q99.32 7.05 99.32 6.50L99.32 6.50L100.17 6.50Q100.17 7.08 100.60 7.41Q101.03 7.75 101.74 7.75L101.74 7.75Q102.41 7.75 102.77 7.48Q103.12 7.20 103.12 6.73Q103.12 6.26 102.79 6.01Q102.46 5.75 101.60 5.50ZM113.47 1.95L113.47 2.65L111.42 2.65L111.42 8.35L110.58 8.35L110.58 2.65L108.53 2.65L108.53 1.95L113.47 1.95ZM122.04 4.70L122.04 5.39L119.27 5.39L119.27 7.66L122.49 7.66L122.49 8.35L118.42 8.35L118.42 1.95L122.44 1.95L122.44 2.65L119.27 2.65L119.27 4.70L122.04 4.70ZM127.54 1.95L128.63 1.95L130.72 7.17L132.81 1.95L133.91 1.95L133.91 8.35L133.06 8.35L133.06 5.86L133.14 3.17L131.04 8.35L130.40 8.35L128.30 3.18L128.38 5.86L128.38 8.35L127.54 8.35L127.54 1.95Z"
        transform="translate(0, 0)"></path>
    </g>
  </svg> <svg x="276" y="272.63500061035154"
    viewBox="2.4800000190734863 13.539999961853027 83.91999816894531 29.729999542236328" height="29.729999542236328"
    width="83.91999816894531" style="overflow: visible;">
    <g fill="#000" style="">
      <path
        d="M6.48 42.95L2.48 42.95L2.48 13.79L6.48 13.79L6.48 42.95ZM18.50 43.27L18.50 43.27Q15.41 43.27 13.70 41.98Q11.99 40.68 11.32 38.48Q10.66 36.29 10.66 33.59L10.66 33.59L10.66 23.29Q10.66 20.34 11.32 18.14Q11.99 15.95 13.70 14.74Q15.41 13.54 18.50 13.54L18.50 13.54Q21.24 13.54 22.84 14.54Q24.44 15.55 25.15 17.42Q25.85 19.30 25.85 21.92L25.85 21.92L25.85 24.23L22.00 24.23L22.00 22.18Q22.00 20.56 21.83 19.31Q21.67 18.07 20.95 17.39Q20.23 16.70 18.54 16.70L18.54 16.70Q16.81 16.70 16.02 17.44Q15.23 18.18 14.99 19.53Q14.76 20.88 14.76 22.68L14.76 22.68L14.76 34.24Q14.76 36.43 15.12 37.71Q15.48 38.99 16.31 39.53Q17.14 40.07 18.54 40.07L18.54 40.07Q20.20 40.07 20.92 39.33Q21.64 38.59 21.82 37.30Q22.00 36.00 22.00 34.27L22.00 34.27L22.00 32.11L25.85 32.11L25.85 34.27Q25.85 36.94 25.20 38.97Q24.55 41.00 22.97 42.14Q21.38 43.27 18.50 43.27ZM41.26 42.95L29.74 42.95L29.74 13.79L33.80 13.79L33.80 40.03L41.26 40.03L41.26 42.95ZM49.43 43.24L49.43 43.24Q47.12 43.24 45.79 42.30Q44.46 41.36 43.90 39.64Q43.34 37.91 43.34 35.57L43.34 35.57L43.34 29.52Q43.34 27.18 43.90 25.45Q44.46 23.72 45.79 22.79Q47.12 21.85 49.43 21.85L49.43 21.85Q51.73 21.85 53.05 22.79Q54.36 23.72 54.92 25.45Q55.48 27.18 55.48 29.52L55.48 29.52L55.48 35.57Q55.48 37.91 54.92 39.64Q54.36 41.36 53.05 42.30Q51.73 43.24 49.43 43.24ZM49.43 40.39L49.43 40.39Q50.54 40.39 50.99 39.74Q51.44 39.10 51.53 38.03Q51.62 36.97 51.62 35.82L51.62 35.82L51.62 29.30Q51.62 28.12 51.53 27.07Q51.44 26.03 50.99 25.36Q50.54 24.70 49.43 24.70L49.43 24.70Q48.31 24.70 47.84 25.36Q47.38 26.03 47.29 27.07Q47.20 28.12 47.20 29.30L47.20 29.30L47.20 35.82Q47.20 36.97 47.29 38.03Q47.38 39.10 47.84 39.74Q48.31 40.39 49.43 40.39ZM62.75 43.24L62.75 43.24Q61.52 43.24 60.59 42.53Q59.65 41.83 59.11 40.73Q58.57 39.64 58.57 38.41L58.57 38.41Q58.57 36.47 59.22 35.14Q59.87 33.80 61.00 32.89Q62.14 31.97 63.63 31.28Q65.12 30.60 66.78 29.95L66.78 29.95L66.78 28.48Q66.78 27.22 66.64 26.39Q66.49 25.56 66.04 25.15Q65.59 24.73 64.69 24.73L64.69 24.73Q63.90 24.73 63.41 25.09Q62.93 25.45 62.71 26.12Q62.50 26.78 62.50 27.68L62.50 27.68L62.50 28.73L58.68 28.58Q58.75 25.13 60.26 23.49Q61.78 21.85 64.94 21.85L64.94 21.85Q68.04 21.85 69.34 23.54Q70.63 25.24 70.63 28.44L70.63 28.44L70.63 37.94Q70.63 38.92 70.69 39.82Q70.74 40.72 70.83 41.49Q70.92 42.26 70.99 42.95L70.99 42.95L67.46 42.95Q67.36 42.37 67.19 41.49Q67.03 40.61 66.96 39.89L66.96 39.89Q66.60 41.11 65.57 42.17Q64.55 43.24 62.75 43.24ZM64.26 39.92L64.26 39.92Q64.84 39.92 65.34 39.60Q65.84 39.28 66.24 38.86Q66.64 38.45 66.78 38.20L66.78 38.20L66.78 32.29Q65.88 32.80 65.09 33.30Q64.30 33.80 63.70 34.36Q63.11 34.92 62.77 35.62Q62.42 36.32 62.42 37.22L62.42 37.22Q62.42 38.48 62.89 39.20Q63.36 39.92 64.26 39.92ZM78.19 42.95L74.34 42.95L74.34 22.14L78.19 22.14L78.19 24.19Q79.24 23.22 80.50 22.54Q81.76 21.85 83.27 21.85L83.27 21.85Q84.53 21.85 85.19 22.50Q85.86 23.15 86.13 24.12Q86.40 25.09 86.40 26.10L86.40 26.10L86.40 42.95L82.55 42.95L82.55 27.22Q82.55 26.10 82.22 25.49Q81.90 24.88 80.89 24.88L80.89 24.88Q80.24 24.88 79.54 25.25Q78.84 25.63 78.19 26.17L78.19 26.17L78.19 42.95Z"
        transform="translate(0, 0)"></path>
    </g>
  </svg></svg>